PathFileType	4	(X/Y/Z)	D:\TRACE\v60_Jaco2_6-2-23\JustArmDRS_Motion2_3-platform.trc
DataRate	CameraRate	NumFrames	NumMarkers	Units	OrigDataRate	OrigDataStartFrame	OrigNumFrames
100.00	100.00	      23	5	mm	100.00	2614	      6969
Frame#	Time	Left_Front			Right_Front			Left_Aft			Right_Aft			Post			
		X1	Y1	Z1	X2	Y2	Z2	X3	Y3	Z3	X4	Y4	Z4	X5	Y5	Z5	

2614	26.130	-832.66858	-52.60700	-650.69769	737.63019	-50.60310	-655.86029	-740.62659	48.82650	480.29523	701.70740	49.90555	489.83301	-46.02073	1211.04773	-1109.72412	
2615	26.140	-831.60052	-52.14638	-650.83893	738.48407	-50.30116	-655.77527	-739.96790	48.57172	480.31021	702.47876	49.73755	489.78934	-45.16297	1211.36987	-1110.48828	
2616	26.150	-830.83618	-51.93312	-650.48053	739.22070	-50.16868	-655.96619	-739.02722	48.46938	480.41333	703.18567	49.53877	489.82056	-44.04081	1211.54675	-1111.44519	
2617	26.160	-830.00110	-51.70065	-650.37506	739.93323	-50.12736	-655.66150	-738.15881	48.40911	480.45435	704.52704	49.39016	489.99338	-43.29953	1212.09314	-1112.10681	
2618	26.170	-829.31781	-51.18802	-650.43756	741.17249	-49.12402	-655.54010	-737.30859	48.02398	480.48450	705.21075	49.22771	490.05914	-42.57819	1212.76868	-1112.87012	
2619	26.180	-828.20587	-50.88911	-650.38098	741.99768	-48.51708	-655.70288	-736.33051	47.62476	480.60464	706.12781	48.83816	490.18051	-41.18193	1213.47668	-1113.52063	
2620	26.190	-827.24957	-50.38653	-650.30988	742.66632	-48.73571	-655.61768	-735.39307	47.29348	480.78940	706.80042	48.63354	490.28522	-40.29155	1213.87390	-1114.49280	
2621	26.200	-826.48706	-49.91575	-650.18549	744.19226	-47.67323	-655.04657	-734.72864	47.06591	480.92099	707.77979	48.21314	490.38321	-39.77493	1214.60583	-1114.95520	
2622	26.210	-825.49084	-49.39462	-650.11987	744.98322	-46.94784	-655.16302	-733.79419	46.80122	481.04266	708.72693	47.83282	490.46802	-38.23052	1215.40833	-1115.95557	
2623	26.220	-824.56219	-48.71700	-650.05133	745.58044	-47.33377	-655.12262	-732.60687	46.41352	481.27570	709.68793	47.51247	490.56427	-37.42475	1216.09351	-1116.51904	
2624	26.230	-823.63202	-48.12185	-650.01508	747.11969	-46.05587	-655.06494	-731.75116	45.90362	481.42203	710.68512	47.15191	490.72882	-36.42398	1217.10107	-1117.25159	
2625	26.240	-822.48828	-47.50550	-649.97388	747.61981	-45.88426	-654.83087	-730.66956	45.55952	481.48517	711.64783	46.81407	490.88568	-35.35269	1217.81860	-1117.73950	
2626	26.250	-821.68469	-47.06836	-649.71057	748.12714	-45.35320	-655.23456	-729.81506	45.19104	481.73334	712.56104	46.25704	490.89505	-34.18513	1218.75232	-1118.54114	
2627	26.260	-820.57135	-46.42872	-649.74609	749.59155	-44.60455	-654.91840	-728.91003	44.54155	481.92706	713.41382	45.83049	491.08939	-33.18131	1219.49500	-1118.92920	
2628	26.270	-819.54773	-45.81166	-649.63379	750.27991	-44.00782	-654.99170	-727.66949	44.20277	482.17093	714.62036	45.44110	491.23755	-31.76456	1220.56763	-1119.53088	
2629	26.280	-818.57019	-44.66515	-649.57227	751.36731	-43.34576	-654.47461	-726.82422	43.89540	482.35452	715.35327	45.10286	491.55792	-30.99904	1221.83240	-1119.98181	
2630	26.290	-817.66821	-44.15529	-649.30396	753.01166	-42.25194	-654.21472	-725.75189	43.22414	482.59894	716.87439	44.36057	491.66037	-30.04425	1222.74768	-1120.34021	
2631	26.300	-816.59564	-43.40578	-649.26691	753.43372	-41.53867	-654.67126	-724.56262	42.76125	482.86148	717.84515	44.03090	491.92761	-28.62141	1223.81873	-1120.79944	
2632	26.310	-815.25928	-42.54307	-649.03772	754.24005	-40.76898	-654.29608	-723.86902	42.26646	483.07529	718.48138	42.93521	492.43301	-27.63244	1225.32056	-1120.77319	
2633	26.320	-814.52075	-41.74917	-649.06488	755.45795	-40.17843	-654.25690	-722.71796	41.58577	483.28888	719.40228	42.39263	492.79446	-26.82154	1226.30505	-1120.86157	
2634	26.330	-813.38654	-40.50737	-648.94751	756.61261	-38.84681	-654.15497	-721.66968	40.96606	483.52438	720.46674	41.76208	492.97098	-25.38755	1227.98108	-1121.08093	
2635	26.340	-812.29089	-39.71281	-648.65991	757.59613	-37.94114	-653.90839	-720.66083	40.42489	483.75198	721.80597	41.12496	493.19397	-24.11902	1229.06592	-1121.05664	
2636	26.350	-811.18207	-38.90472	-648.49316	758.81305	-37.08454	-653.60126	-719.52917	39.68163	483.97879	722.72546	40.47027	493.53809	-23.32195	1230.78687	-1120.83496	
